REM DIRINDEX 1\5,1\2\6,1\2\7,1\3\8,1\3\9,1\4\10,1\4\11,1\4\12
REM DIRNAME cjc026,folder01,folder02,folder03,folder04,folder05,folder06,folder07,folder08,folder09,folder10,folder11
TITLE ""
FILE "EJE_DB3000_5th_6C_41.mp3" MP3
  TRACK 01 AUDIO
    TITLE "0:"
    INDEX 01 00:00:00
  TRACK 02 AUDIO
    TITLE "10:cjc026_11739"
    INDEX 01 00:00:08
  TRACK 03 AUDIO
    TITLE "0:"
    INDEX 01 00:01:19
  TRACK 04 AUDIO
    TITLE "11:cjc026_11740"
    INDEX 01 00:01:54
  TRACK 05 AUDIO
    TITLE "0:"
    INDEX 01 00:03:12
  TRACK 06 AUDIO
    TITLE "12:cjc026_11741"
    INDEX 01 00:03:47
  TRACK 07 AUDIO
    TITLE "0:"
    INDEX 01 00:04:56
  TRACK 08 AUDIO
    TITLE "10:cjc026_11742"
    INDEX 01 00:05:16
  TRACK 09 AUDIO
    TITLE "0:"
    INDEX 01 00:06:33
  TRACK 10 AUDIO
    TITLE "11:cjc026_11743"
    INDEX 01 00:06:68
  TRACK 11 AUDIO
    TITLE "0:"
    INDEX 01 00:08:15
  TRACK 12 AUDIO
    TITLE "12:cjc026_11744"
    INDEX 01 00:08:50
  TRACK 13 AUDIO
    TITLE "0:"
    INDEX 01 00:09:64
  TRACK 14 AUDIO
    TITLE "10:cjc026_11745"
    INDEX 01 00:10:27
  TRACK 15 AUDIO
    TITLE "0:"
    INDEX 01 00:11:47
  TRACK 16 AUDIO
    TITLE "11:cjc026_11746"
    INDEX 01 00:12:04
  TRACK 17 AUDIO
    TITLE "0:"
    INDEX 01 00:13:40
  TRACK 18 AUDIO
    TITLE "12:cjc026_11747"
    INDEX 01 00:14:00
  TRACK 19 AUDIO
    TITLE "0:"
    INDEX 01 00:15:19
  TRACK 20 AUDIO
    TITLE "10:cjc026_11748"
    INDEX 01 00:15:57
  TRACK 21 AUDIO
    TITLE "0:"
    INDEX 01 00:17:12
  TRACK 22 AUDIO
    TITLE "11:cjc026_11749"
    INDEX 01 00:17:53
  TRACK 23 AUDIO
    TITLE "0:"
    INDEX 01 00:19:27
  TRACK 24 AUDIO
    TITLE "12:cjc026_11750"
    INDEX 01 00:19:62
  TRACK 25 AUDIO
    TITLE "0:"
    INDEX 01 00:21:20
  TRACK 26 AUDIO
    TITLE "10:cjc026_11751"
    INDEX 01 00:21:58
  TRACK 27 AUDIO
    TITLE "0:"
    INDEX 01 00:23:03
  TRACK 28 AUDIO
    TITLE "11:cjc026_11752"
    INDEX 01 00:23:38
  TRACK 29 AUDIO
    TITLE "0:"
    INDEX 01 00:25:04
  TRACK 30 AUDIO
    TITLE "12:cjc026_11753"
    INDEX 01 00:25:39
  TRACK 31 AUDIO
    TITLE "0:"
    INDEX 01 00:26:61
  TRACK 32 AUDIO
    TITLE "10:cjc026_11754"
    INDEX 01 00:27:24
  TRACK 33 AUDIO
    TITLE "0:"
    INDEX 01 00:28:43
  TRACK 34 AUDIO
    TITLE "11:cjc026_11755"
    INDEX 01 00:29:03
  TRACK 35 AUDIO
    TITLE "0:"
    INDEX 01 00:30:42
  TRACK 36 AUDIO
    TITLE "12:cjc026_11756"
    INDEX 01 00:31:05
  TRACK 37 AUDIO
    TITLE "0:"
    INDEX 01 00:32:24
  TRACK 38 AUDIO
    TITLE "10:cjc026_11757"
    INDEX 01 00:32:59
  TRACK 39 AUDIO
    TITLE "0:"
    INDEX 01 00:34:12
  TRACK 40 AUDIO
    TITLE "11:cjc026_11758"
    INDEX 01 00:34:47
  TRACK 41 AUDIO
    TITLE "0:"
    INDEX 01 00:36:18
  TRACK 42 AUDIO
    TITLE "12:cjc026_11759"
    INDEX 01 00:36:54
  TRACK 43 AUDIO
    TITLE "0:"
    INDEX 01 00:38:06
  TRACK 44 AUDIO
    TITLE "10:cjc026_11760"
    INDEX 01 00:38:41
  TRACK 45 AUDIO
    TITLE "0:"
    INDEX 01 00:39:61
  TRACK 46 AUDIO
    TITLE "11:cjc026_11761"
    INDEX 01 00:40:21
  TRACK 47 AUDIO
    TITLE "0:"
    INDEX 01 00:42:03
  TRACK 48 AUDIO
    TITLE "12:cjc026_11762"
    INDEX 01 00:42:36
  TRACK 49 AUDIO
    TITLE "0:"
    INDEX 01 00:43:52
  TRACK 50 AUDIO
    TITLE "10:cjc026_11763"
    INDEX 01 00:44:12
  TRACK 51 AUDIO
    TITLE "0:"
    INDEX 01 00:45:27
  TRACK 52 AUDIO
    TITLE "11:cjc026_11764"
    INDEX 01 00:45:64
  TRACK 53 AUDIO
    TITLE "0:"
    INDEX 01 00:47:74
  TRACK 54 AUDIO
    TITLE "12:cjc026_11765"
    INDEX 01 00:48:34
  TRACK 55 AUDIO
    TITLE "0:"
    INDEX 01 00:49:48
  TRACK 56 AUDIO
    TITLE "10:cjc026_11766"
    INDEX 01 00:50:08
  TRACK 57 AUDIO
    TITLE "0:"
    INDEX 01 00:51:33
  TRACK 58 AUDIO
    TITLE "11:cjc026_11767"
    INDEX 01 00:51:65
  TRACK 59 AUDIO
    TITLE "0:"
    INDEX 01 00:53:37
  TRACK 60 AUDIO
    TITLE "12:cjc026_11768"
    INDEX 01 00:53:72
  TRACK 61 AUDIO
    TITLE "0:"
    INDEX 01 00:55:19
  TRACK 62 AUDIO
    TITLE "10:cjc026_11769"
    INDEX 01 00:55:54
  TRACK 63 AUDIO
    TITLE "0:"
    INDEX 01 00:56:68
  TRACK 64 AUDIO
    TITLE "11:cjc026_11770"
    INDEX 01 00:57:28
  TRACK 65 AUDIO
    TITLE "0:"
    INDEX 01 00:58:69
  TRACK 66 AUDIO
    TITLE "12:cjc026_11771"
    INDEX 01 00:59:30
  TRACK 67 AUDIO
    TITLE "0:"
    INDEX 01 01:00:44
  TRACK 68 AUDIO
    TITLE "10:cjc026_11772"
    INDEX 01 01:01:06
  TRACK 69 AUDIO
    TITLE "0:"
    INDEX 01 01:02:15
  TRACK 70 AUDIO
    TITLE "11:cjc026_11773"
    INDEX 01 01:02:50
  TRACK 71 AUDIO
    TITLE "0:"
    INDEX 01 01:04:14
  TRACK 72 AUDIO
    TITLE "12:cjc026_11774"
    INDEX 01 01:04:51
  TRACK 73 AUDIO
    TITLE "0:"
    INDEX 01 01:05:63
  TRACK 74 AUDIO
    TITLE "10:cjc026_11775"
    INDEX 01 01:06:23
  TRACK 75 AUDIO
    TITLE "0:"
    INDEX 01 01:07:45
  TRACK 76 AUDIO
    TITLE "11:cjc026_11776"
    INDEX 01 01:08:03
  TRACK 77 AUDIO
    TITLE "0:"
    INDEX 01 01:09:19
  TRACK 78 AUDIO
    TITLE "12:cjc026_11777"
    INDEX 01 01:09:54
  TRACK 79 AUDIO
    TITLE "0:"
    INDEX 01 01:10:74
  TRACK 80 AUDIO
    TITLE "10:cjc026_11778"
    INDEX 01 01:11:34
  TRACK 81 AUDIO
    TITLE "0:"
    INDEX 01 01:12:48
  TRACK 82 AUDIO
    TITLE "11:cjc026_11779"
    INDEX 01 01:13:08
  TRACK 83 AUDIO
    TITLE "0:"
    INDEX 01 01:14:47
  TRACK 84 AUDIO
    TITLE "12:cjc026_11780"
    INDEX 01 01:15:07
  TRACK 85 AUDIO
    TITLE "0:"
    INDEX 01 01:16:21
